<?xml version="1.0" standalone="no"?>
<!DOCTYPE svg PUBLIC "-//W3C//DTD SVG 20010904//EN"
 "http://www.w3.org/TR/2001/REC-SVG-20010904/DTD/svg10.dtd">
<svg version="1.0" xmlns="http://www.w3.org/2000/svg"
 width="580.000000pt" height="416.000000pt" viewBox="0 0 580.000000 416.000000"
 preserveAspectRatio="xMidYMid meet">

<g transform="translate(0.000000,416.000000) scale(0.100000,-0.100000)"
fill="#000000" stroke="none">
<path d="M2545 3814 c-784 -80 -1435 -349 -1813 -749 -127 -134 -208 -264
-265 -421 -43 -119 -49 -199 -44 -569 4 -374 5 -378 73 -537 76 -179 249 -390
434 -530 368 -278 894 -475 1462 -548 253 -32 457 -43 678 -37 438 13 829 81
1193 207 381 132 665 299 893 525 202 201 312 403 343 628 17 122 14 607 -4
710 -72 411 -400 763 -950 1019 -341 159 -736 260 -1189 303 -196 18 -627 18
-811 -1z m282 -166 c39 -84 70 -154 69 -156 -2 -1 -70 -7 -152 -12 -199 -13
-383 -41 -560 -85 -81 -20 -150 -33 -154 -28 -4 4 -38 73 -74 152 -50 108 -63
147 -54 153 59 36 598 124 779 127 l75 1 71 -152z m1758 -183 c211 -103 459
-265 438 -286 -6 -6 -95 -59 -198 -119 l-188 -108 -57 48 c-125 103 -354 234
-507 290 -35 12 -63 26 -63 29 0 4 87 57 193 118 130 76 198 110 212 107 11
-3 88 -39 170 -79z m-1800 -153 c-6 -5 -66 -14 -135 -21 -69 -6 -179 -23 -245
-36 -135 -28 -135 -28 -135 -16 0 4 48 18 106 31 171 36 432 63 409 42z m540
-7 c130 -16 314 -52 336 -65 28 -18 1 -18 -76 1 -94 22 -333 59 -387 59 -21 0
-38 5 -38 10 0 13 24 13 165 -5z m-1372 -181 c4 -4 -21 -20 -56 -36 -81 -38
-168 -91 -240 -145 -55 -42 -86 -51 -94 -28 -4 14 132 103 251 164 95 49 125
59 139 45z m2187 -61 c112 -58 230 -138 230 -154 0 -27 -35 -14 -111 40 -46
34 -128 84 -182 112 -54 27 -95 55 -91 60 8 14 36 4 154 -58z m-3188 -128
c128 -20 242 -39 252 -43 18 -8 17 -10 -11 -43 -103 -119 -193 -318 -193 -426
0 -18 -5 -33 -11 -33 -5 0 -125 18 -265 40 -140 22 -260 40 -266 40 -28 0 45
224 109 335 68 118 105 164 130 165 12 0 126 -16 255 -35z m465 -219 c2 -1
-17 -41 -41 -88 -25 -48 -50 -114 -57 -148 l-12 -61 -36 3 c-34 3 -36 5 -35
39 1 40 47 145 96 222 27 43 34 48 57 42 14 -4 27 -8 28 -9z m3173 -26 c29
-41 96 -187 105 -229 8 -38 -3 -51 -47 -51 -22 0 -29 6 -33 28 -18 86 -32 124
-66 192 -28 55 -35 76 -26 82 23 15 46 8 67 -22z m644 -418 l238 -38 -1 -242
c-2 -205 -5 -254 -22 -320 -24 -94 -95 -242 -158 -325 l-46 -62 -3 221 c-2
220 -3 222 -25 227 -12 3 -132 22 -267 43 -135 20 -247 39 -249 41 -3 2 7 16
21 31 93 98 177 267 199 400 l12 70 31 -4 c17 -3 138 -22 270 -42z m-3903
-128 c12 -41 42 -107 66 -146 23 -38 43 -72 43 -74 0 -2 -15 -4 -33 -4 -29 0
-37 7 -74 63 -64 98 -111 207 -98 228 4 5 21 9 40 9 33 0 34 -1 56 -76z m3355
33 c-9 -43 -70 -164 -111 -219 -28 -39 -41 -48 -65 -48 -17 0 -30 3 -30 6 0 4
21 40 46 80 25 41 55 102 65 137 11 34 21 67 23 73 2 6 20 8 41 6 35 -4 37 -6
31 -35z m-3038 -447 c53 -42 186 -120 264 -155 69 -31 84 -45 47 -45 -49 0
-379 182 -379 209 0 8 11 16 28 20 2 1 20 -12 40 -29z m-308 -19 c118 -100
337 -226 505 -291 33 -13 64 -26 68 -30 4 -4 -80 -57 -188 -119 l-195 -112 0
-225 c0 -123 -4 -224 -9 -224 -16 0 -186 79 -280 130 -112 61 -214 126 -293
187 l-58 44 0 228 c0 226 0 228 23 239 12 6 99 56 192 111 94 55 174 100 179
100 6 1 30 -16 56 -38z m2989 30 c21 -14 -63 -70 -226 -152 -95 -48 -148 -69
-160 -65 -13 5 9 21 89 60 59 29 144 78 190 109 92 62 87 60 107 48z m-1934
-325 c39 -9 131 -23 205 -31 177 -22 227 -36 100 -30 -95 5 -303 35 -387 56
-47 12 -61 35 -15 26 15 -4 59 -13 97 -21z m1245 15 c0 -5 -8 -12 -17 -15 -71
-22 -334 -62 -445 -68 -69 -3 -70 9 -1 17 122 13 340 46 393 59 71 18 70 18
70 7z m328 -239 l72 -157 -2 -225 -3 -224 -45 -13 c-152 -45 -480 -97 -742
-118 l-78 -6 0 227 0 226 -70 151 c-38 83 -70 154 -70 157 0 4 53 10 118 13
207 12 538 66 682 111 25 8 50 15 55 15 6 0 43 -70 83 -157z"/>
</g>
</svg>
